<mxfile host="65bd71144e" modified="2021-02-27T17:11:16.671Z" agent="5.0 (Windows NT 10.0; Win64; x64) AppleWebKit/537.36 (KHTML, like Gecko) Code/1.53.2 Chrome/87.0.4280.141 Electron/11.2.1 Safari/537.36" etag="uTGiAI5dXgcVbTR3AkGM" version="14.4.3" type="embed">
    <diagram id="igsePLLAv6ammDNtJoVA" name="ページ1">
        <mxGraphModel dx="920" dy="550" grid="1" gridSize="10" guides="1" tooltips="1" connect="1" arrows="1" fold="1" page="1" pageScale="1" pageWidth="827" pageHeight="1169" math="0" shadow="0">
            <root>
                <mxCell id="0"/>
                <mxCell id="1" parent="0"/>
                <mxCell id="83" value="" style="shape=table;html=1;whiteSpace=wrap;startSize=0;container=1;collapsible=0;childLayout=tableLayout;" parent="1" vertex="1">
                    <mxGeometry x="80" y="220" width="320" height="40" as="geometry"/>
                </mxCell>
                <mxCell id="84" value="" style="shape=partialRectangle;html=1;whiteSpace=wrap;collapsible=0;dropTarget=0;pointerEvents=0;fillColor=none;top=0;left=0;bottom=0;right=0;points=[[0,0.5],[1,0.5]];portConstraint=eastwest;" parent="83" vertex="1">
                    <mxGeometry width="320" height="40" as="geometry"/>
                </mxCell>
                <mxCell id="85" value="[0, 1)&lt;br&gt;3" style="shape=partialRectangle;html=1;whiteSpace=wrap;connectable=0;fillColor=none;top=0;left=0;bottom=0;right=0;overflow=hidden;" parent="84" vertex="1">
                    <mxGeometry width="40" height="40" as="geometry"/>
                </mxCell>
                <mxCell id="86" value="[1, 2)&lt;br&gt;-2" style="shape=partialRectangle;html=1;whiteSpace=wrap;connectable=0;fillColor=#d5e8d4;top=0;left=0;bottom=0;right=0;overflow=hidden;strokeColor=#82b366;" parent="84" vertex="1">
                    <mxGeometry x="40" width="40" height="40" as="geometry"/>
                </mxCell>
                <mxCell id="87" value="[2, 3)&lt;br&gt;1" style="shape=partialRectangle;html=1;whiteSpace=wrap;connectable=0;fillColor=none;top=0;left=0;bottom=0;right=0;overflow=hidden;" parent="84" vertex="1">
                    <mxGeometry x="80" width="40" height="40" as="geometry"/>
                </mxCell>
                <mxCell id="88" value="[3, 4)&lt;br&gt;6" style="shape=partialRectangle;html=1;whiteSpace=wrap;connectable=0;fillColor=none;top=0;left=0;bottom=0;right=0;overflow=hidden;" parent="84" vertex="1">
                    <mxGeometry x="120" width="40" height="40" as="geometry"/>
                </mxCell>
                <mxCell id="89" value="[4, 5)&lt;br&gt;5" style="shape=partialRectangle;html=1;whiteSpace=wrap;connectable=0;fillColor=none;top=0;left=0;bottom=0;right=0;overflow=hidden;" parent="84" vertex="1">
                    <mxGeometry x="160" width="40" height="40" as="geometry"/>
                </mxCell>
                <mxCell id="90" value="[5, 6)&lt;br&gt;11" style="shape=partialRectangle;html=1;whiteSpace=wrap;connectable=0;fillColor=none;top=0;left=0;bottom=0;right=0;overflow=hidden;" parent="84" vertex="1">
                    <mxGeometry x="200" width="40" height="40" as="geometry"/>
                </mxCell>
                <mxCell id="91" value="[6, 7)&lt;br&gt;-7" style="shape=partialRectangle;html=1;whiteSpace=wrap;connectable=0;fillColor=none;top=0;left=0;bottom=0;right=0;overflow=hidden;" parent="84" vertex="1">
                    <mxGeometry x="240" width="40" height="40" as="geometry"/>
                </mxCell>
                <mxCell id="92" value="[7, 8)&lt;br&gt;-9" style="shape=partialRectangle;html=1;whiteSpace=wrap;connectable=0;fillColor=none;top=0;left=0;bottom=0;right=0;overflow=hidden;" parent="84" vertex="1">
                    <mxGeometry x="280" width="40" height="40" as="geometry"/>
                </mxCell>
                <mxCell id="93" value="" style="shape=table;html=1;whiteSpace=wrap;startSize=0;container=1;collapsible=0;childLayout=tableLayout;" parent="1" vertex="1">
                    <mxGeometry x="80" y="160" width="320" height="40" as="geometry"/>
                </mxCell>
                <mxCell id="94" value="" style="shape=partialRectangle;html=1;whiteSpace=wrap;collapsible=0;dropTarget=0;pointerEvents=0;fillColor=none;top=0;left=0;bottom=0;right=0;points=[[0,0.5],[1,0.5]];portConstraint=eastwest;" parent="93" vertex="1">
                    <mxGeometry width="320" height="40" as="geometry"/>
                </mxCell>
                <mxCell id="95" value="[0, 2)&lt;br&gt;3" style="shape=partialRectangle;html=1;whiteSpace=wrap;connectable=0;fillColor=none;top=0;left=0;bottom=0;right=0;overflow=hidden;" parent="94" vertex="1">
                    <mxGeometry width="80" height="40" as="geometry"/>
                </mxCell>
                <mxCell id="96" value="[2, 4)&lt;br&gt;6" style="shape=partialRectangle;html=1;whiteSpace=wrap;connectable=0;fillColor=#d5e8d4;top=0;left=0;bottom=0;right=0;overflow=hidden;strokeColor=#82b366;" parent="94" vertex="1">
                    <mxGeometry x="80" width="80" height="40" as="geometry"/>
                </mxCell>
                <mxCell id="97" value="[4, 6)&lt;br&gt;11" style="shape=partialRectangle;html=1;whiteSpace=wrap;connectable=0;fillColor=none;top=0;left=0;bottom=0;right=0;overflow=hidden;" parent="94" vertex="1">
                    <mxGeometry x="160" width="80" height="40" as="geometry"/>
                </mxCell>
                <mxCell id="98" value="[6, 8)&lt;br&gt;-7" style="shape=partialRectangle;html=1;whiteSpace=wrap;connectable=0;fillColor=none;top=0;left=0;bottom=0;right=0;overflow=hidden;" parent="94" vertex="1">
                    <mxGeometry x="240" width="80" height="40" as="geometry"/>
                </mxCell>
                <mxCell id="99" value="" style="shape=table;html=1;whiteSpace=wrap;startSize=0;container=1;collapsible=0;childLayout=tableLayout;" parent="1" vertex="1">
                    <mxGeometry x="80" y="100" width="320" height="40" as="geometry"/>
                </mxCell>
                <mxCell id="100" value="" style="shape=partialRectangle;html=1;whiteSpace=wrap;collapsible=0;dropTarget=0;pointerEvents=0;fillColor=none;top=0;left=0;bottom=0;right=0;points=[[0,0.5],[1,0.5]];portConstraint=eastwest;" parent="99" vertex="1">
                    <mxGeometry width="320" height="40" as="geometry"/>
                </mxCell>
                <mxCell id="101" value="[0, 4)&lt;br&gt;6" style="shape=partialRectangle;html=1;whiteSpace=wrap;connectable=0;fillColor=none;top=0;left=0;bottom=0;right=0;overflow=hidden;" parent="100" vertex="1">
                    <mxGeometry width="160" height="40" as="geometry"/>
                </mxCell>
                <mxCell id="102" value="[4, 8)&lt;br&gt;11" style="shape=partialRectangle;html=1;whiteSpace=wrap;connectable=0;fillColor=#d5e8d4;top=0;left=0;bottom=0;right=0;overflow=hidden;strokeColor=#82b366;" parent="100" vertex="1">
                    <mxGeometry x="160" width="160" height="40" as="geometry"/>
                </mxCell>
                <mxCell id="103" value="" style="endArrow=none;html=1;exitX=0.25;exitY=0.002;exitDx=0;exitDy=0;exitPerimeter=0;entryX=0.501;entryY=0.996;entryDx=0;entryDy=0;entryPerimeter=0;" parent="1" source="100" target="118" edge="1">
                    <mxGeometry width="50" height="50" relative="1" as="geometry">
                        <mxPoint x="230" y="200" as="sourcePoint"/>
                        <mxPoint x="238.39999999999986" y="80.03999999999996" as="targetPoint"/>
                    </mxGeometry>
                </mxCell>
                <mxCell id="104" value="" style="endArrow=none;html=1;exitX=0.749;exitY=0;exitDx=0;exitDy=0;exitPerimeter=0;entryX=0.501;entryY=1.003;entryDx=0;entryDy=0;entryPerimeter=0;" parent="1" source="100" target="118" edge="1">
                    <mxGeometry width="50" height="50" relative="1" as="geometry">
                        <mxPoint x="210" y="80" as="sourcePoint"/>
                        <mxPoint x="240.6400000000001" y="80" as="targetPoint"/>
                    </mxGeometry>
                </mxCell>
                <mxCell id="105" value="" style="endArrow=none;html=1;entryX=0.248;entryY=0.996;entryDx=0;entryDy=0;entryPerimeter=0;exitX=0.125;exitY=-0.004;exitDx=0;exitDy=0;exitPerimeter=0;" parent="1" source="94" target="100" edge="1">
                    <mxGeometry width="50" height="50" relative="1" as="geometry">
                        <mxPoint x="110" y="150" as="sourcePoint"/>
                        <mxPoint x="190" y="130" as="targetPoint"/>
                    </mxGeometry>
                </mxCell>
                <mxCell id="106" value="" style="endArrow=none;html=1;entryX=0.25;entryY=1;entryDx=0;entryDy=0;entryPerimeter=0;exitX=0.375;exitY=-0.003;exitDx=0;exitDy=0;exitPerimeter=0;" parent="1" source="94" target="100" edge="1">
                    <mxGeometry width="50" height="50" relative="1" as="geometry">
                        <mxPoint x="200" y="160" as="sourcePoint"/>
                        <mxPoint x="250" y="110" as="targetPoint"/>
                    </mxGeometry>
                </mxCell>
                <mxCell id="107" value="" style="endArrow=none;html=1;entryX=0.123;entryY=0.997;entryDx=0;entryDy=0;entryPerimeter=0;exitX=0.062;exitY=-0.001;exitDx=0;exitDy=0;exitPerimeter=0;" parent="1" source="84" target="94" edge="1">
                    <mxGeometry width="50" height="50" relative="1" as="geometry">
                        <mxPoint x="130" y="230" as="sourcePoint"/>
                        <mxPoint x="180" y="180" as="targetPoint"/>
                    </mxGeometry>
                </mxCell>
                <mxCell id="108" value="" style="endArrow=none;html=1;entryX=0.187;entryY=-0.003;entryDx=0;entryDy=0;entryPerimeter=0;exitX=0.124;exitY=0.997;exitDx=0;exitDy=0;exitPerimeter=0;" parent="1" source="94" target="84" edge="1">
                    <mxGeometry width="50" height="50" relative="1" as="geometry">
                        <mxPoint x="90" y="230" as="sourcePoint"/>
                        <mxPoint x="140" y="180" as="targetPoint"/>
                    </mxGeometry>
                </mxCell>
                <mxCell id="109" value="" style="endArrow=none;html=1;entryX=0.75;entryY=1.005;entryDx=0;entryDy=0;entryPerimeter=0;exitX=0.624;exitY=-0.001;exitDx=0;exitDy=0;exitPerimeter=0;" parent="1" source="94" target="100" edge="1">
                    <mxGeometry width="50" height="50" relative="1" as="geometry">
                        <mxPoint x="280" y="180" as="sourcePoint"/>
                        <mxPoint x="330" y="130" as="targetPoint"/>
                    </mxGeometry>
                </mxCell>
                <mxCell id="110" value="" style="endArrow=none;html=1;entryX=0.876;entryY=0;entryDx=0;entryDy=0;entryPerimeter=0;exitX=0.746;exitY=1.02;exitDx=0;exitDy=0;exitPerimeter=0;" parent="1" source="100" target="94" edge="1">
                    <mxGeometry width="50" height="50" relative="1" as="geometry">
                        <mxPoint x="310" y="140" as="sourcePoint"/>
                        <mxPoint x="360" y="90" as="targetPoint"/>
                    </mxGeometry>
                </mxCell>
                <mxCell id="111" value="" style="endArrow=none;html=1;entryX=0.374;entryY=1.005;entryDx=0;entryDy=0;entryPerimeter=0;exitX=0.312;exitY=-0.001;exitDx=0;exitDy=0;exitPerimeter=0;" parent="1" source="84" target="94" edge="1">
                    <mxGeometry width="50" height="50" relative="1" as="geometry">
                        <mxPoint x="190" y="230" as="sourcePoint"/>
                        <mxPoint x="240" y="180" as="targetPoint"/>
                    </mxGeometry>
                </mxCell>
                <mxCell id="112" value="" style="endArrow=none;html=1;entryX=0.372;entryY=0.999;entryDx=0;entryDy=0;entryPerimeter=0;exitX=0.438;exitY=-0.001;exitDx=0;exitDy=0;exitPerimeter=0;" parent="1" source="84" target="94" edge="1">
                    <mxGeometry width="50" height="50" relative="1" as="geometry">
                        <mxPoint x="190" y="230" as="sourcePoint"/>
                        <mxPoint x="240" y="180" as="targetPoint"/>
                    </mxGeometry>
                </mxCell>
                <mxCell id="113" value="" style="endArrow=none;html=1;entryX=0.624;entryY=1;entryDx=0;entryDy=0;entryPerimeter=0;exitX=0.564;exitY=0;exitDx=0;exitDy=0;exitPerimeter=0;" parent="1" source="84" target="94" edge="1">
                    <mxGeometry width="50" height="50" relative="1" as="geometry">
                        <mxPoint x="270" y="270" as="sourcePoint"/>
                        <mxPoint x="320" y="220" as="targetPoint"/>
                    </mxGeometry>
                </mxCell>
                <mxCell id="114" value="" style="endArrow=none;html=1;entryX=0.624;entryY=0.996;entryDx=0;entryDy=0;entryPerimeter=0;exitX=0.686;exitY=0.002;exitDx=0;exitDy=0;exitPerimeter=0;" parent="1" source="84" target="94" edge="1">
                    <mxGeometry width="50" height="50" relative="1" as="geometry">
                        <mxPoint x="270" y="260" as="sourcePoint"/>
                        <mxPoint x="320" y="210" as="targetPoint"/>
                    </mxGeometry>
                </mxCell>
                <mxCell id="115" value="" style="endArrow=none;html=1;entryX=0.875;entryY=1.006;entryDx=0;entryDy=0;entryPerimeter=0;exitX=0.813;exitY=-0.003;exitDx=0;exitDy=0;exitPerimeter=0;" parent="1" source="84" target="93" edge="1">
                    <mxGeometry width="50" height="50" relative="1" as="geometry">
                        <mxPoint x="290" y="240" as="sourcePoint"/>
                        <mxPoint x="340" y="190" as="targetPoint"/>
                    </mxGeometry>
                </mxCell>
                <mxCell id="116" value="" style="endArrow=none;html=1;entryX=0.875;entryY=0.995;entryDx=0;entryDy=0;entryPerimeter=0;exitX=0.939;exitY=0;exitDx=0;exitDy=0;exitPerimeter=0;" parent="1" source="84" target="94" edge="1">
                    <mxGeometry width="50" height="50" relative="1" as="geometry">
                        <mxPoint x="340" y="240" as="sourcePoint"/>
                        <mxPoint x="390" y="190" as="targetPoint"/>
                    </mxGeometry>
                </mxCell>
                <mxCell id="117" value="" style="shape=table;html=1;whiteSpace=wrap;startSize=0;container=1;collapsible=0;childLayout=tableLayout;" parent="1" vertex="1">
                    <mxGeometry x="80" y="40" width="320" height="40" as="geometry"/>
                </mxCell>
                <mxCell id="118" value="" style="shape=partialRectangle;html=1;whiteSpace=wrap;collapsible=0;dropTarget=0;pointerEvents=0;fillColor=none;top=0;left=0;bottom=0;right=0;points=[[0,0.5],[1,0.5]];portConstraint=eastwest;" parent="117" vertex="1">
                    <mxGeometry width="320" height="40" as="geometry"/>
                </mxCell>
                <mxCell id="119" value="[0, 8)&lt;br&gt;11" style="shape=partialRectangle;html=1;whiteSpace=wrap;connectable=0;fillColor=none;top=0;left=0;bottom=0;right=0;overflow=hidden;" parent="118" vertex="1">
                    <mxGeometry width="320" height="40" as="geometry"/>
                </mxCell>
                <mxCell id="120" value="" style="shape=table;html=1;whiteSpace=wrap;startSize=0;container=1;collapsible=0;childLayout=tableLayout;" parent="1" vertex="1">
                    <mxGeometry x="440" y="220" width="320" height="40" as="geometry"/>
                </mxCell>
                <mxCell id="121" value="" style="shape=partialRectangle;html=1;whiteSpace=wrap;collapsible=0;dropTarget=0;pointerEvents=0;fillColor=none;top=0;left=0;bottom=0;right=0;points=[[0,0.5],[1,0.5]];portConstraint=eastwest;" parent="120" vertex="1">
                    <mxGeometry width="320" height="40" as="geometry"/>
                </mxCell>
                <mxCell id="122" value="[0, 1)&lt;br&gt;3" style="shape=partialRectangle;html=1;whiteSpace=wrap;connectable=0;fillColor=none;top=0;left=0;bottom=0;right=0;overflow=hidden;" parent="121" vertex="1">
                    <mxGeometry width="40" height="40" as="geometry"/>
                </mxCell>
                <mxCell id="123" value="[1, 2)&lt;br&gt;-2" style="shape=partialRectangle;html=1;whiteSpace=wrap;connectable=0;fillColor=none;top=0;left=0;bottom=0;right=0;overflow=hidden;" parent="121" vertex="1">
                    <mxGeometry x="40" width="40" height="40" as="geometry"/>
                </mxCell>
                <mxCell id="124" value="[2, 3)&lt;br&gt;1" style="shape=partialRectangle;html=1;whiteSpace=wrap;connectable=0;fillColor=none;top=0;left=0;bottom=0;right=0;overflow=hidden;" parent="121" vertex="1">
                    <mxGeometry x="80" width="40" height="40" as="geometry"/>
                </mxCell>
                <mxCell id="125" value="[3, 4)&lt;br&gt;6" style="shape=partialRectangle;html=1;whiteSpace=wrap;connectable=0;fillColor=none;top=0;left=0;bottom=0;right=0;overflow=hidden;" parent="121" vertex="1">
                    <mxGeometry x="120" width="40" height="40" as="geometry"/>
                </mxCell>
                <mxCell id="126" value="[4, 5)&lt;br&gt;5" style="shape=partialRectangle;html=1;whiteSpace=wrap;connectable=0;fillColor=#dae8fc;top=0;left=0;bottom=0;right=0;overflow=hidden;strokeColor=#6c8ebf;" parent="121" vertex="1">
                    <mxGeometry x="160" width="40" height="40" as="geometry"/>
                </mxCell>
                <mxCell id="127" value="[5, 6)&lt;br&gt;11" style="shape=partialRectangle;html=1;whiteSpace=wrap;connectable=0;fillColor=none;top=0;left=0;bottom=0;right=0;overflow=hidden;" parent="121" vertex="1">
                    <mxGeometry x="200" width="40" height="40" as="geometry"/>
                </mxCell>
                <mxCell id="128" value="[6, 7)&lt;br&gt;-7" style="shape=partialRectangle;html=1;whiteSpace=wrap;connectable=0;fillColor=none;top=0;left=0;bottom=0;right=0;overflow=hidden;" parent="121" vertex="1">
                    <mxGeometry x="240" width="40" height="40" as="geometry"/>
                </mxCell>
                <mxCell id="129" value="[7, 8)&lt;br&gt;-9" style="shape=partialRectangle;html=1;whiteSpace=wrap;connectable=0;fillColor=none;top=0;left=0;bottom=0;right=0;overflow=hidden;" parent="121" vertex="1">
                    <mxGeometry x="280" width="40" height="40" as="geometry"/>
                </mxCell>
                <mxCell id="130" value="" style="shape=table;html=1;whiteSpace=wrap;startSize=0;container=1;collapsible=0;childLayout=tableLayout;" parent="1" vertex="1">
                    <mxGeometry x="440" y="160" width="320" height="40" as="geometry"/>
                </mxCell>
                <mxCell id="131" value="" style="shape=partialRectangle;html=1;whiteSpace=wrap;collapsible=0;dropTarget=0;pointerEvents=0;fillColor=none;top=0;left=0;bottom=0;right=0;points=[[0,0.5],[1,0.5]];portConstraint=eastwest;" parent="130" vertex="1">
                    <mxGeometry width="320" height="40" as="geometry"/>
                </mxCell>
                <mxCell id="132" value="[0, 2)&lt;br&gt;3" style="shape=partialRectangle;html=1;whiteSpace=wrap;connectable=0;fillColor=none;top=0;left=0;bottom=0;right=0;overflow=hidden;" parent="131" vertex="1">
                    <mxGeometry width="80" height="40" as="geometry"/>
                </mxCell>
                <mxCell id="133" value="[2, 4)&lt;br&gt;6" style="shape=partialRectangle;html=1;whiteSpace=wrap;connectable=0;fillColor=#dae8fc;top=0;left=0;bottom=0;right=0;overflow=hidden;strokeColor=#6c8ebf;" parent="131" vertex="1">
                    <mxGeometry x="80" width="80" height="40" as="geometry"/>
                </mxCell>
                <mxCell id="134" value="[4, 6)&lt;br&gt;11" style="shape=partialRectangle;html=1;whiteSpace=wrap;connectable=0;fillColor=none;top=0;left=0;bottom=0;right=0;overflow=hidden;" parent="131" vertex="1">
                    <mxGeometry x="160" width="80" height="40" as="geometry"/>
                </mxCell>
                <mxCell id="135" value="[6, 8)&lt;br&gt;-7" style="shape=partialRectangle;html=1;whiteSpace=wrap;connectable=0;fillColor=none;top=0;left=0;bottom=0;right=0;overflow=hidden;" parent="131" vertex="1">
                    <mxGeometry x="240" width="80" height="40" as="geometry"/>
                </mxCell>
                <mxCell id="136" value="" style="shape=table;html=1;whiteSpace=wrap;startSize=0;container=1;collapsible=0;childLayout=tableLayout;" parent="1" vertex="1">
                    <mxGeometry x="440" y="100" width="320" height="40" as="geometry"/>
                </mxCell>
                <mxCell id="137" value="" style="shape=partialRectangle;html=1;whiteSpace=wrap;collapsible=0;dropTarget=0;pointerEvents=0;fillColor=none;top=0;left=0;bottom=0;right=0;points=[[0,0.5],[1,0.5]];portConstraint=eastwest;" parent="136" vertex="1">
                    <mxGeometry width="320" height="40" as="geometry"/>
                </mxCell>
                <mxCell id="138" value="[0, 4)&lt;br&gt;6" style="shape=partialRectangle;html=1;whiteSpace=wrap;connectable=0;fillColor=#dae8fc;top=0;left=0;bottom=0;right=0;overflow=hidden;strokeColor=#6c8ebf;" parent="137" vertex="1">
                    <mxGeometry width="160" height="40" as="geometry"/>
                </mxCell>
                <mxCell id="139" value="[4, 8)&lt;br&gt;11" style="shape=partialRectangle;html=1;whiteSpace=wrap;connectable=0;fillColor=none;top=0;left=0;bottom=0;right=0;overflow=hidden;" parent="137" vertex="1">
                    <mxGeometry x="160" width="160" height="40" as="geometry"/>
                </mxCell>
                <mxCell id="140" value="" style="endArrow=none;html=1;exitX=0.25;exitY=0.002;exitDx=0;exitDy=0;exitPerimeter=0;entryX=0.501;entryY=0.996;entryDx=0;entryDy=0;entryPerimeter=0;" parent="1" source="137" target="155" edge="1">
                    <mxGeometry width="50" height="50" relative="1" as="geometry">
                        <mxPoint x="590" y="200" as="sourcePoint"/>
                        <mxPoint x="598.3999999999999" y="80.03999999999996" as="targetPoint"/>
                    </mxGeometry>
                </mxCell>
                <mxCell id="141" value="" style="endArrow=none;html=1;exitX=0.749;exitY=0;exitDx=0;exitDy=0;exitPerimeter=0;entryX=0.501;entryY=1.003;entryDx=0;entryDy=0;entryPerimeter=0;" parent="1" source="137" target="155" edge="1">
                    <mxGeometry width="50" height="50" relative="1" as="geometry">
                        <mxPoint x="570" y="80" as="sourcePoint"/>
                        <mxPoint x="600.6400000000001" y="80" as="targetPoint"/>
                    </mxGeometry>
                </mxCell>
                <mxCell id="142" value="" style="endArrow=none;html=1;entryX=0.248;entryY=0.996;entryDx=0;entryDy=0;entryPerimeter=0;exitX=0.125;exitY=-0.004;exitDx=0;exitDy=0;exitPerimeter=0;" parent="1" source="131" target="137" edge="1">
                    <mxGeometry width="50" height="50" relative="1" as="geometry">
                        <mxPoint x="470" y="150" as="sourcePoint"/>
                        <mxPoint x="550" y="130" as="targetPoint"/>
                    </mxGeometry>
                </mxCell>
                <mxCell id="143" value="" style="endArrow=none;html=1;entryX=0.25;entryY=1;entryDx=0;entryDy=0;entryPerimeter=0;exitX=0.375;exitY=-0.003;exitDx=0;exitDy=0;exitPerimeter=0;" parent="1" source="131" target="137" edge="1">
                    <mxGeometry width="50" height="50" relative="1" as="geometry">
                        <mxPoint x="560" y="160" as="sourcePoint"/>
                        <mxPoint x="610" y="110" as="targetPoint"/>
                    </mxGeometry>
                </mxCell>
                <mxCell id="144" value="" style="endArrow=none;html=1;entryX=0.123;entryY=0.997;entryDx=0;entryDy=0;entryPerimeter=0;exitX=0.062;exitY=-0.001;exitDx=0;exitDy=0;exitPerimeter=0;" parent="1" source="121" target="131" edge="1">
                    <mxGeometry width="50" height="50" relative="1" as="geometry">
                        <mxPoint x="490" y="230" as="sourcePoint"/>
                        <mxPoint x="540" y="180" as="targetPoint"/>
                    </mxGeometry>
                </mxCell>
                <mxCell id="145" value="" style="endArrow=none;html=1;entryX=0.187;entryY=-0.003;entryDx=0;entryDy=0;entryPerimeter=0;exitX=0.124;exitY=0.997;exitDx=0;exitDy=0;exitPerimeter=0;" parent="1" source="131" target="121" edge="1">
                    <mxGeometry width="50" height="50" relative="1" as="geometry">
                        <mxPoint x="450" y="230" as="sourcePoint"/>
                        <mxPoint x="500" y="180" as="targetPoint"/>
                    </mxGeometry>
                </mxCell>
                <mxCell id="146" value="" style="endArrow=none;html=1;entryX=0.75;entryY=1.005;entryDx=0;entryDy=0;entryPerimeter=0;exitX=0.624;exitY=-0.001;exitDx=0;exitDy=0;exitPerimeter=0;" parent="1" source="131" target="137" edge="1">
                    <mxGeometry width="50" height="50" relative="1" as="geometry">
                        <mxPoint x="640" y="180" as="sourcePoint"/>
                        <mxPoint x="690" y="130" as="targetPoint"/>
                    </mxGeometry>
                </mxCell>
                <mxCell id="147" value="" style="endArrow=none;html=1;entryX=0.876;entryY=0;entryDx=0;entryDy=0;entryPerimeter=0;exitX=0.746;exitY=1.02;exitDx=0;exitDy=0;exitPerimeter=0;" parent="1" source="137" target="131" edge="1">
                    <mxGeometry width="50" height="50" relative="1" as="geometry">
                        <mxPoint x="670" y="140" as="sourcePoint"/>
                        <mxPoint x="720" y="90" as="targetPoint"/>
                    </mxGeometry>
                </mxCell>
                <mxCell id="148" value="" style="endArrow=none;html=1;entryX=0.374;entryY=1.005;entryDx=0;entryDy=0;entryPerimeter=0;exitX=0.312;exitY=-0.001;exitDx=0;exitDy=0;exitPerimeter=0;" parent="1" source="121" target="131" edge="1">
                    <mxGeometry width="50" height="50" relative="1" as="geometry">
                        <mxPoint x="550" y="230" as="sourcePoint"/>
                        <mxPoint x="600" y="180" as="targetPoint"/>
                    </mxGeometry>
                </mxCell>
                <mxCell id="149" value="" style="endArrow=none;html=1;entryX=0.372;entryY=0.999;entryDx=0;entryDy=0;entryPerimeter=0;exitX=0.438;exitY=-0.001;exitDx=0;exitDy=0;exitPerimeter=0;" parent="1" source="121" target="131" edge="1">
                    <mxGeometry width="50" height="50" relative="1" as="geometry">
                        <mxPoint x="550" y="230" as="sourcePoint"/>
                        <mxPoint x="600" y="180" as="targetPoint"/>
                    </mxGeometry>
                </mxCell>
                <mxCell id="150" value="" style="endArrow=none;html=1;entryX=0.624;entryY=1;entryDx=0;entryDy=0;entryPerimeter=0;exitX=0.564;exitY=0;exitDx=0;exitDy=0;exitPerimeter=0;" parent="1" source="121" target="131" edge="1">
                    <mxGeometry width="50" height="50" relative="1" as="geometry">
                        <mxPoint x="630" y="270" as="sourcePoint"/>
                        <mxPoint x="680" y="220" as="targetPoint"/>
                    </mxGeometry>
                </mxCell>
                <mxCell id="151" value="" style="endArrow=none;html=1;entryX=0.624;entryY=0.996;entryDx=0;entryDy=0;entryPerimeter=0;exitX=0.686;exitY=0.002;exitDx=0;exitDy=0;exitPerimeter=0;" parent="1" source="121" target="131" edge="1">
                    <mxGeometry width="50" height="50" relative="1" as="geometry">
                        <mxPoint x="630" y="260" as="sourcePoint"/>
                        <mxPoint x="680" y="210" as="targetPoint"/>
                    </mxGeometry>
                </mxCell>
                <mxCell id="152" value="" style="endArrow=none;html=1;entryX=0.875;entryY=1.006;entryDx=0;entryDy=0;entryPerimeter=0;exitX=0.813;exitY=-0.003;exitDx=0;exitDy=0;exitPerimeter=0;" parent="1" source="121" target="130" edge="1">
                    <mxGeometry width="50" height="50" relative="1" as="geometry">
                        <mxPoint x="650" y="240" as="sourcePoint"/>
                        <mxPoint x="700" y="190" as="targetPoint"/>
                    </mxGeometry>
                </mxCell>
                <mxCell id="153" value="" style="endArrow=none;html=1;entryX=0.875;entryY=0.995;entryDx=0;entryDy=0;entryPerimeter=0;exitX=0.939;exitY=0;exitDx=0;exitDy=0;exitPerimeter=0;" parent="1" source="121" target="131" edge="1">
                    <mxGeometry width="50" height="50" relative="1" as="geometry">
                        <mxPoint x="700" y="240" as="sourcePoint"/>
                        <mxPoint x="750" y="190" as="targetPoint"/>
                    </mxGeometry>
                </mxCell>
                <mxCell id="154" value="" style="shape=table;html=1;whiteSpace=wrap;startSize=0;container=1;collapsible=0;childLayout=tableLayout;" parent="1" vertex="1">
                    <mxGeometry x="440" y="40" width="320" height="40" as="geometry"/>
                </mxCell>
                <mxCell id="155" value="" style="shape=partialRectangle;html=1;whiteSpace=wrap;collapsible=0;dropTarget=0;pointerEvents=0;fillColor=none;top=0;left=0;bottom=0;right=0;points=[[0,0.5],[1,0.5]];portConstraint=eastwest;" parent="154" vertex="1">
                    <mxGeometry width="320" height="40" as="geometry"/>
                </mxCell>
                <mxCell id="156" value="[0, 8)&lt;br&gt;11" style="shape=partialRectangle;html=1;whiteSpace=wrap;connectable=0;fillColor=none;top=0;left=0;bottom=0;right=0;overflow=hidden;" parent="155" vertex="1">
                    <mxGeometry width="320" height="40" as="geometry"/>
                </mxCell>
                <mxCell id="157" value="" style="endArrow=classic;startArrow=classic;html=1;" parent="1" edge="1">
                    <mxGeometry width="50" height="50" relative="1" as="geometry">
                        <mxPoint x="120" y="270" as="sourcePoint"/>
                        <mxPoint x="400" y="270" as="targetPoint"/>
                    </mxGeometry>
                </mxCell>
                <mxCell id="158" value="[1, ∞)" style="text;html=1;align=center;verticalAlign=middle;resizable=0;points=[];autosize=1;" parent="1" vertex="1">
                    <mxGeometry x="240" y="270" width="40" height="20" as="geometry"/>
                </mxCell>
                <mxCell id="159" value="" style="endArrow=classic;startArrow=classic;html=1;" parent="1" edge="1">
                    <mxGeometry width="50" height="50" relative="1" as="geometry">
                        <mxPoint x="439.9999999999999" y="270" as="sourcePoint"/>
                        <mxPoint x="640" y="270.42" as="targetPoint"/>
                    </mxGeometry>
                </mxCell>
                <mxCell id="160" value="[-∞, 5)" style="text;html=1;align=center;verticalAlign=middle;resizable=0;points=[];autosize=1;" parent="1" vertex="1">
                    <mxGeometry x="515" y="270" width="50" height="20" as="geometry"/>
                </mxCell>
                <mxCell id="161" value="" style="endArrow=classic;html=1;fillColor=#008a00;strokeColor=#005700;exitX=0.219;exitY=0;exitDx=0;exitDy=0;exitPerimeter=0;strokeWidth=3;" parent="1" source="84" edge="1">
                    <mxGeometry width="50" height="50" relative="1" as="geometry">
                        <mxPoint x="150" y="210" as="sourcePoint"/>
                        <mxPoint x="170" y="200" as="targetPoint"/>
                    </mxGeometry>
                </mxCell>
                <mxCell id="162" value="" style="endArrow=classic;html=1;fillColor=#008a00;strokeColor=#005700;strokeWidth=3;" parent="1" edge="1">
                    <mxGeometry width="50" height="50" relative="1" as="geometry">
                        <mxPoint x="220" y="160" as="sourcePoint"/>
                        <mxPoint x="260" y="140" as="targetPoint"/>
                    </mxGeometry>
                </mxCell>
                <mxCell id="163" value="" style="endArrow=classic;html=1;strokeWidth=3;exitX=0.531;exitY=0.005;exitDx=0;exitDy=0;exitPerimeter=0;entryX=0.438;entryY=1.01;entryDx=0;entryDy=0;entryPerimeter=0;fillColor=#0050ef;strokeColor=#001DBC;" parent="1" source="121" target="130" edge="1">
                    <mxGeometry width="50" height="50" relative="1" as="geometry">
                        <mxPoint x="590" y="210" as="sourcePoint"/>
                        <mxPoint x="530" y="70" as="targetPoint"/>
                    </mxGeometry>
                </mxCell>
                <mxCell id="164" value="" style="endArrow=classic;html=1;strokeWidth=3;exitX=0.531;exitY=0.005;exitDx=0;exitDy=0;exitPerimeter=0;entryX=0.313;entryY=1.011;entryDx=0;entryDy=0;entryPerimeter=0;fillColor=#0050ef;strokeColor=#001DBC;" parent="1" target="137" edge="1">
                    <mxGeometry width="50" height="50" relative="1" as="geometry">
                        <mxPoint x="579.7600000000001" y="160" as="sourcePoint"/>
                        <mxPoint x="550" y="140.2" as="targetPoint"/>
                    </mxGeometry>
                </mxCell>
            </root>
        </mxGraphModel>
    </diagram>
</mxfile>